<svg version="1.0"
 width="2277.000000pt" height="994.000000pt" viewBox="0 0 2277.000000 994.000000"
 preserveAspectRatio="xMidYMid meet">

<g transform="translate(0.000000,994.000000) scale(0.100000,-0.100000)"
fill="none" stroke="1">
<path d="M7940 9429 c-176 -20 -401 -90 -556 -174 -530 -286 -827 -850 -776
-1474 18 -213 73 -410 164 -586 210 -404 617 -697 1073 -772 123 -20 403 -22
530 -4 322 45 619 194 836 417 78 80 189 212 189 225 0 3 -64 52 -142 108 -79
55 -215 152 -303 215 l-160 114 -90 -92 c-180 -185 -338 -256 -566 -256 -180
0 -327 55 -452 170 -256 236 -322 669 -151 1001 76 147 172 243 309 308 108
52 171 65 295 65 217 -2 394 -84 558 -258 38 -42 73 -76 75 -76 3 0 129 96
279 213 150 116 287 222 303 233 l29 22 -43 57 c-108 143 -318 319 -478 398
-253 127 -601 182 -923 146z"/>
<path d="M14281 9429 c-256 -29 -563 -149 -765 -301 -78 -59 -222 -198 -280
-271 -152 -191 -261 -432 -302 -667 -27 -154 -25 -418 4 -565 39 -200 112
-378 222 -545 118 -179 369 -404 555 -498 152 -76 325 -132 490 -158 124 -20
387 -23 515 -6 287 39 583 169 792 345 l67 57 706 -2 706 -3 18 -53 c35 -102
114 -190 220 -244 63 -32 69 -33 185 -33 l121 0 72 39 c137 73 220 197 230
344 9 131 -23 232 -103 321 -93 103 -195 145 -337 139 -117 -5 -184 -31 -260
-99 -71 -63 -111 -120 -130 -185 l-14 -49 -622 -3 c-429 -1 -621 1 -621 8 0 6
17 34 38 63 89 122 162 275 211 442 24 80 51 231 51 281 l0 34 971 -2 972 -3
12 -42 c30 -102 123 -204 230 -255 66 -31 76 -33 180 -33 102 0 114 2 175 31
287 138 338 503 99 719 -113 102 -309 128 -457 60 -102 -47 -196 -153 -226
-255 l-13 -45 -966 -3 -967 -2 -4 22 c-3 13 -8 55 -11 93 -18 212 -112 474
-234 654 l-42 61 611 -2 612 -3 18 -52 c74 -212 310 -330 526 -265 175 53 290
197 301 375 9 146 -31 250 -132 346 -95 90 -214 127 -351 111 -155 -19 -305
-143 -347 -286 l-14 -49 -692 -3 c-380 -1 -691 1 -691 6 0 13 -142 127 -233
186 -163 107 -340 179 -546 222 -133 28 -405 40 -550 23z m3275 -309 c162
-112 147 -352 -29 -440 -78 -39 -140 -40 -217 -4 -98 45 -150 127 -150 235 0
62 27 131 68 175 82 87 229 102 328 34z m-2827 -458 c236 -88 406 -282 471
-538 28 -109 29 -307 1 -415 -89 -346 -367 -569 -708 -569 -123 0 -217 22
-332 77 -77 37 -108 59 -176 126 -93 93 -147 178 -196 312 -33 89 -33 91 -33
270 0 177 0 182 31 267 83 230 229 389 428 463 104 40 137 44 290 41 128 -3
147 -6 224 -34z m2797 -1528 c98 -46 151 -143 141 -255 -6 -66 -25 -106 -72
-154 -48 -47 -84 -64 -152 -71 -158 -17 -283 96 -283 253 0 190 192 309 366
227z"/>
<path d="M12090 9380 l-395 -5 -5 -758 -5 -758 -142 183 c-78 101 -313 404
-523 673 -210 270 -400 514 -423 544 -23 30 -55 69 -71 88 l-28 33 -377 -2
-376 -3 -3 -1457 -2 -1458 405 0 405 0 2 791 3 791 93 -118 c51 -66 133 -171
182 -234 132 -169 365 -468 408 -524 20 -26 60 -76 87 -111 28 -34 91 -115
140 -180 50 -64 119 -154 155 -199 36 -46 76 -98 90 -116 14 -19 38 -49 54
-67 l28 -33 354 0 354 0 0 1459 c0 803 -3 1461 -7 1463 -5 2 -186 1 -403 -2z"/>
<path d="M1045 9367 c-3 -6 -4 -165 -3 -352 l3 -340 433 -3 432 -2 0 -1105 0
-1105 405 0 405 0 0 1105 0 1105 438 2 437 3 0 350 0 350 -1273 3 c-1016 2
-1274 0 -1277 -11z"/>
<path d="M3945 9368 c-3 -7 -4 -663 -3 -1458 l3 -1445 1185 0 1185 0 3 339 c2
265 -1 341 -10 348 -7 4 -359 8 -783 8 l-770 0 0 222 0 223 698 3 697 2 -2
323 -3 322 -695 2 -695 3 -3 215 -2 215 772 2 773 3 0 340 0 340 -1173 3
c-933 2 -1174 0 -1177 -10z"/>
<path d="M2513 5479 c-399 -31 -729 -182 -993 -455 -155 -160 -236 -284 -316
-484 -73 -182 -104 -355 -104 -580 0 -172 11 -265 47 -405 67 -260 176 -454
365 -650 294 -306 656 -455 1103 -455 526 0 924 190 1226 584 l53 68 -30 27
c-17 14 -57 44 -88 66 -32 22 -73 51 -91 65 -18 14 -115 83 -215 154 l-182
129 -69 -76 c-117 -127 -245 -211 -389 -253 -96 -27 -311 -26 -396 3 -163 56
-282 148 -368 282 -177 279 -173 676 12 947 178 263 500 361 812 247 104 -38
220 -122 320 -230 l60 -66 28 24 c15 14 44 38 66 55 21 16 82 63 136 104 53
41 114 88 136 105 108 83 223 176 229 185 10 15 -59 102 -156 198 -250 246
-552 382 -904 407 -168 12 -193 12 -292 4z"/>
<path d="M5510 5479 c-507 -38 -938 -282 -1206 -682 -114 -170 -193 -368 -229
-572 -22 -121 -22 -408 0 -530 52 -296 192 -569 400 -780 196 -199 411 -327
677 -404 210 -60 500 -79 727 -45 248 36 512 142 696 279 311 233 504 527 591
900 26 111 28 136 28 325 0 189 -2 214 -28 325 -41 177 -121 370 -203 491 -15
23 -40 59 -54 80 -68 101 -256 277 -389 364 -91 59 -269 143 -370 175 -108 34
-261 63 -365 70 -44 3 -100 7 -125 9 -25 2 -92 0 -150 -5z m250 -743 c315 -67
532 -295 594 -625 21 -109 20 -205 -3 -317 -35 -168 -95 -285 -206 -399 -82
-84 -175 -141 -295 -181 -76 -25 -99 -27 -220 -27 -119 0 -144 3 -215 26 -249
82 -410 254 -496 528 -21 64 -24 95 -24 229 0 143 2 162 29 245 32 103 53 148
107 225 131 192 350 307 584 309 44 0 109 -6 145 -13z"/>
<path d="M14957 5479 c-403 -31 -743 -188 -1009 -467 -251 -264 -392 -607
-405 -987 -14 -389 89 -721 312 -1010 176 -227 422 -399 703 -492 157 -51 305
-73 501 -73 417 0 724 107 1006 350 50 43 99 89 109 102 11 12 43 50 71 83 28
33 61 74 73 92 l22 31 -292 209 c-161 115 -299 213 -306 217 -9 5 -38 -18 -89
-74 -121 -130 -247 -211 -383 -247 -92 -25 -292 -24 -380 1 -324 93 -528 418
-506 806 8 142 27 216 88 339 125 254 362 393 642 378 223 -12 411 -116 574
-317 l19 -24 84 65 c46 35 86 67 89 70 5 5 151 118 199 154 127 94 240 189
234 199 -3 6 -38 48 -76 94 -211 250 -489 413 -806 472 -93 18 -135 22 -316
34 -27 2 -99 -1 -158 -5z"/>
<path d="M20005 5313 c-32 -76 -78 -185 -102 -243 -24 -58 -57 -134 -72 -170
-16 -36 -52 -121 -81 -190 -29 -69 -96 -228 -150 -355 -54 -126 -121 -286
-150 -355 -29 -69 -79 -187 -111 -262 -33 -75 -59 -139 -59 -142 0 -3 -11 -29
-24 -58 -21 -45 -85 -196 -297 -703 -38 -90 -70 -162 -109 -249 -17 -38 -27
-73 -22 -78 4 -4 197 -7 427 -6 l419 3 54 130 c29 72 62 153 72 180 10 28 33
86 52 130 l34 80 558 0 559 0 59 -145 c76 -189 111 -274 137 -332 l20 -48 426
0 c344 0 427 3 431 13 3 8 -41 121 -97 253 -55 131 -123 293 -151 359 -28 66
-66 156 -85 200 -19 44 -43 100 -53 125 -10 25 -34 81 -53 125 -19 44 -45 107
-59 140 -14 33 -81 191 -148 350 -66 160 -132 315 -145 345 -29 66 -102 237
-265 625 -67 160 -135 318 -150 353 l-29 62 -389 0 -389 0 -58 -137z m469
-910 c16 -38 32 -77 37 -88 4 -11 29 -74 55 -140 50 -131 91 -235 153 -394 23
-57 41 -107 41 -112 0 -5 -136 -9 -315 -9 -173 0 -315 4 -315 8 0 8 312 801
316 802 1 0 13 -30 28 -67z"/>
<path d="M7612 3963 l3 -1458 400 0 400 0 5 793 5 793 90 -116 c177 -229 256
-331 310 -400 30 -38 93 -119 140 -180 165 -212 294 -378 398 -509 23 -30 100
-129 171 -220 l129 -166 353 0 354 0 0 1460 0 1460 -400 0 -400 0 -2 -762 -3
-763 -80 101 c-94 120 -399 511 -435 559 -14 18 -38 50 -55 71 -29 37 -217
279 -269 347 -14 17 -65 82 -113 144 -49 61 -121 154 -162 207 l-74 96 -384 0
-383 0 2 -1457z"/>
<path d="M10882 3963 l3 -1458 1180 0 1180 0 0 345 0 345 -777 3 -778 2 0 225
0 225 698 2 697 3 0 320 0 320 -697 3 -698 2 0 215 0 215 764 0 c634 0 765 2
775 14 8 9 11 108 9 342 l-3 329 -1178 3 -1177 2 2 -1457z"/>
<path d="M16520 5065 l0 -355 435 0 435 0 2 -1102 3 -1103 405 0 405 0 3 1103
2 1102 435 0 435 0 0 355 0 355 -1280 0 -1280 0 0 -355z"/>
<path d="M16467 1624 c-193 -61 -340 -216 -393 -415 -23 -88 -21 -252 4 -340
29 -103 82 -188 166 -266 75 -70 131 -103 236 -139 44 -15 82 -18 185 -17 114
1 138 4 200 27 81 31 176 90 225 141 l34 35 -64 65 c-35 36 -68 65 -72 65 -4
0 -36 -22 -70 -50 -182 -147 -450 -115 -566 67 -54 85 -74 149 -75 243 -2 150
59 279 168 352 151 101 325 88 490 -38 l48 -37 63 69 c35 38 63 74 64 80 0 15
-51 60 -115 101 -129 82 -366 108 -528 57z"/>
<path d="M18970 1627 c-106 -32 -172 -71 -250 -149 -117 -117 -173 -257 -174
-433 0 -174 60 -320 176 -431 86 -82 115 -101 211 -136 75 -28 93 -31 207 -32
128 -1 205 15 295 61 41 22 125 85 155 117 l24 27 -66 66 -66 66 -64 -48 c-77
-58 -130 -82 -212 -95 -259 -41 -484 205 -436 478 55 319 375 441 641 245 l62
-46 63 69 c35 38 63 74 64 80 0 15 -59 67 -118 103 -134 80 -354 105 -512 58z"/>
<path d="M21275 1463 c-69 -157 -141 -322 -220 -503 -57 -131 -149 -340 -177
-403 -16 -37 -27 -74 -24 -82 7 -20 188 -22 204 -2 9 12 35 71 89 205 l25 62
275 -2 275 -3 29 -65 c15 -36 41 -96 58 -135 l30 -70 102 -3 c56 -1 106 1 110
5 4 4 -8 44 -27 88 -20 44 -58 132 -86 195 -27 63 -75 171 -105 240 -30 69
-68 154 -83 190 -94 215 -146 333 -173 393 l-30 67 -97 0 -97 0 -78 -177z
m277 -321 c44 -103 82 -193 85 -199 4 -10 -37 -13 -186 -13 -105 0 -191 3
-191 8 0 4 41 105 92 224 88 208 93 217 106 192 7 -14 49 -109 94 -212z"/>
<path d="M17317 1623 c-4 -3 -7 -164 -7 -357 0 -462 16 -549 126 -674 51 -59
103 -92 190 -123 74 -27 270 -32 349 -10 122 34 220 109 280 213 56 98 58 119
62 556 l4 402 -105 0 -105 0 -3 -387 -3 -388 -28 -62 c-51 -110 -127 -156
-257 -156 -129 0 -213 52 -264 162 -20 44 -21 64 -24 439 l-3 392 -103 0 c-56
0 -106 -3 -109 -7z"/>
<path d="M19820 1045 l0 -585 440 0 440 0 0 95 0 95 -332 2 -333 3 0 150 0
150 290 5 290 5 0 85 0 85 -290 5 -290 5 -3 147 -3 148 328 2 328 3 5 88 c3
49 3 91 1 93 -2 2 -199 4 -438 4 l-433 0 0 -585z"/>
</g>
<style>
        path { fill: #000; }
        @media (prefers-color-scheme: dark) {
            path { fill: #FFF; }
        }
</style>
</svg>
